# xmcd
#
# Track frame offsets: 
#        150
#        23328
#        37950
#        58389
#        79418
#        110072
#        124529
#        145904
#        165069
#        183929
#        221520
#        249582
#        272956
#        292513
#
# Disc length: 4712 seconds
#
# Revision: 0
# Processed by: cddbd v1.5.2PL0 Copyright (c) Steve Scherf et al.
# Submitted via: ExactAudioCopy v1.0b4
#
DISCID=bc12660e
DTITLE=Canned Heat - Songs From The Road
DYEAR=2015
DGENRE=Blues Rock
TTITLE0=On The Road Again
TTITLE1=Time Was
TTITLE2=Don't Know Where She Went (She Split)
TTITLE3=Nighthawk
TTITLE4=So Sad (The World's In A Tangle)
TTITLE5=Going Up The Country
TTITLE6=Oaxaca
TTITLE7=Chicken Shack Boogie
TTITLE8=Future Blues
TTITLE9=Cristo Redentor
TTITLE10=Amphetamine Annie
TTITLE11=Rollin' And Tumblin'
TTITLE12=Let's Work Together
TTITLE13=Euro Boogie
EXTD=
EXTT0=
EXTT1=
EXTT2=
EXTT3=
EXTT4=
EXTT5=
EXTT6=
EXTT7=
EXTT8=
EXTT9=
EXTT10=
EXTT11=
EXTT12=
EXTT13=
PLAYORDER=
